<svg width="24" height="24" viewBox="0 0 24 24" fill="none" xmlns="http://www.w3.org/2000/svg">
<path d="M22.8448 12.5859C22.6758 12.2129 22.6758 11.7859 22.8448 11.4129L23.7398 9.44487C24.0728 8.71187 24.0878 7.86487 23.7798 7.12087C23.4718 6.37687 22.8628 5.78787 22.1098 5.50587L20.0848 4.74587C19.7018 4.60187 19.3998 4.29987 19.2558 3.91587L18.4958 1.89187C18.2138 1.13787 17.6248 0.528871 16.8808 0.220871C16.1368 -0.0871294 15.2898 -0.0731294 14.5578 0.260871L12.5888 1.15587C12.2148 1.32487 11.7878 1.32387 11.4158 1.15587L9.44577 0.261871C8.71277 -0.0721294 7.86577 -0.0851294 7.12177 0.221871C6.37877 0.530871 5.78977 1.13987 5.50777 1.89287L4.74777 3.91787C4.60377 4.30087 4.30177 4.60287 3.91777 4.74687L1.89377 5.50687C1.14077 5.78887 0.53177 6.37787 0.22377 7.12187C-0.0842295 7.86587 -0.0702295 8.71287 0.263771 9.44487L1.15777 11.4139C1.32677 11.7869 1.32677 12.2139 1.15777 12.5869L0.262771 14.5549C-0.0702295 15.2879 -0.0852295 16.1349 0.22277 16.8789C0.53077 17.6229 1.13977 18.2119 1.89277 18.4939L3.91777 19.2539C4.30077 19.3979 4.60277 19.6999 4.74677 20.0839L5.50677 22.1079C5.78877 22.8619 6.37777 23.4709 7.12177 23.7789C7.47777 23.9259 7.85777 23.9999 8.23777 23.9999C8.65077 23.9999 9.06377 23.9129 9.44477 23.7389L11.4138 22.8449C11.7868 22.6749 12.2138 22.6759 12.5868 22.8449L14.5548 23.7399C15.2878 24.0739 16.1348 24.0869 16.8788 23.7799C17.6228 23.4719 18.2118 22.8629 18.4938 22.1099L19.2538 20.0849C19.3978 19.7019 19.6998 19.3999 20.0838 19.2559L22.1078 18.4959C22.8618 18.2139 23.4708 17.6249 23.7788 16.8809C24.0868 16.1369 24.0728 15.2899 23.7388 14.5579L22.8448 12.5859ZM14.0408 16.8909C14.0408 17.5009 13.5408 18.0009 12.9208 18.0009H11.0808C10.5408 18.0009 9.96077 17.6009 9.96077 16.7109V16.1709H14.0408V16.8909ZM14.8508 13.9309C14.4308 14.2709 14.1608 14.7109 14.0708 15.1709H9.94077C9.87077 14.7209 9.62077 14.3009 9.21077 13.9809C8.10077 13.1109 7.47077 11.8009 7.50077 10.3809C7.55077 8.00087 9.54077 6.03087 11.9308 6.00087C13.1408 5.97087 14.3008 6.44087 15.1708 7.30087C16.0308 8.14087 16.5008 9.27087 16.5008 10.4709C16.5008 11.8209 15.9018 13.0809 14.8508 13.9309Z" fill="#FB8F53"/>
</svg>
