<svg width="34" height="34" viewBox="0 0 34 34" fill="none" xmlns="http://www.w3.org/2000/svg">
<path d="M5.063 17.6863V17.665V14.4016H5.78974V17.9373C5.82351 18.2223 5.79866 18.511 5.71665 18.7863C5.63466 19.0616 5.4972 19.3178 5.31248 19.5397C4.96917 19.8313 4.52928 19.989 4.07593 19.983L4 19.4489C4.29242 19.449 4.57452 19.3425 4.79182 19.1498C4.98707 18.9254 5.063 18.621 5.063 17.6863ZM10.4829 17.265C10.4829 17.6656 10.4829 18.0235 10.5154 18.3332H9.87001L9.82662 17.6977C9.69163 17.9225 9.49858 18.1082 9.2671 18.2358C9.03561 18.3634 8.77395 18.4283 8.50872 18.424C7.8796 18.424 7.13116 18.0876 7.13116 16.7149V14.4343H7.8579V16.5707C7.8579 17.3131 8.09111 17.8098 8.74735 17.8098C8.88237 17.8113 9.01631 17.7861 9.14133 17.7359C9.26635 17.6857 9.37992 17.6114 9.4754 17.5173C9.57087 17.4233 9.64632 17.3115 9.69732 17.1884C9.74831 17.0652 9.77384 16.9333 9.77239 16.8004V14.4076H10.4991V17.2437L10.4829 17.265ZM11.8604 15.705C11.8604 15.2083 11.8604 14.8024 11.8279 14.4338H12.4787L12.5113 15.1015C12.6563 14.8603 12.865 14.6623 13.1152 14.5288C13.3655 14.3952 13.6478 14.331 13.9322 14.343C14.8976 14.343 15.6243 15.1388 15.6243 16.3245C15.6243 17.7239 14.7511 18.4182 13.8075 18.4182C13.5659 18.4288 13.3257 18.3779 13.11 18.2703C12.8943 18.1627 12.7105 18.0021 12.5763 17.804V19.9404H11.8604V15.721V15.705ZM12.5763 16.7465C12.5783 16.8434 12.5892 16.9399 12.6089 17.0349C12.6704 17.2721 12.8105 17.4822 13.0069 17.6322C13.2034 17.7821 13.445 17.8633 13.6936 17.8628C14.4583 17.8628 14.9084 17.2485 14.9084 16.3566C14.9084 15.5768 14.4854 14.9092 13.7207 14.9092C13.4181 14.9336 13.1349 15.0659 12.9242 15.2812C12.7135 15.4965 12.5898 15.7801 12.5763 16.0789V16.7465ZM16.9192 14.4303L17.7923 16.7323C17.8845 16.9886 17.9822 17.2984 18.0472 17.5281C18.1232 17.2931 18.2045 16.994 18.3021 16.7162L19.094 14.4303H19.8587L18.774 17.2076C18.2316 18.5429 17.9008 19.2318 17.4018 19.6484C17.1505 19.8745 16.8441 20.0327 16.5124 20.1078L16.3334 19.5096C16.5654 19.4345 16.7807 19.3167 16.968 19.1624C17.2326 18.9501 17.4425 18.6792 17.5808 18.3719C17.6104 18.3187 17.6306 18.2609 17.6405 18.201C17.6343 18.1366 17.6178 18.0735 17.5917 18.0141L16.1165 14.4196H16.9083L16.9192 14.4303ZM21.788 13.3098V14.4314H22.8293V14.9655H21.788V17.0698C21.788 17.5505 21.929 17.8282 22.3303 17.8282C22.4729 17.8305 22.6151 17.8144 22.7534 17.7802L22.7859 18.3143C22.5786 18.385 22.3598 18.4176 22.1405 18.4104C21.9953 18.4194 21.8498 18.3973 21.7141 18.3456C21.5783 18.294 21.4555 18.2141 21.3541 18.1113C21.1332 17.8203 21.0324 17.4577 21.0721 17.0965V14.9601H20.4538V14.426H21.0829V13.4753L21.788 13.3098ZM24.1681 16.5067C24.1533 16.6878 24.1787 16.8699 24.2425 17.0405C24.3062 17.211 24.4068 17.3659 24.5373 17.4943C24.6678 17.6228 24.825 17.7219 24.9982 17.7847C25.1713 17.8475 25.3563 17.8725 25.5402 17.858C25.9122 17.8662 26.2818 17.797 26.6249 17.655L26.7496 18.1891C26.3287 18.3599 25.876 18.4418 25.4209 18.4295C25.1556 18.4473 24.8895 18.4085 24.6408 18.3156C24.3922 18.2227 24.1669 18.0779 23.9804 17.8912C23.7939 17.7045 23.6506 17.4803 23.5604 17.2339C23.4701 16.9876 23.4351 16.7249 23.4576 16.464C23.4576 15.2889 24.1681 14.3596 25.3287 14.3596C26.6303 14.3596 26.9557 15.4812 26.9557 16.1969C26.9627 16.3072 26.9627 16.4178 26.9557 16.5281H24.1518L24.1681 16.5067ZM26.2941 15.9726C26.315 15.8298 26.3046 15.6842 26.2636 15.5457C26.2226 15.4072 26.1519 15.279 26.0563 15.1697C25.9607 15.0603 25.8424 14.9725 25.7094 14.912C25.5764 14.8515 25.4318 14.8197 25.2853 14.8189C24.9873 14.8402 24.7081 14.9702 24.5024 15.1837C24.2968 15.3971 24.1795 15.6784 24.1735 15.9726H26.2941ZM28.0584 15.6448C28.0584 15.1855 28.0584 14.7902 28.0259 14.427H28.6767V15.1908H28.7092C28.7775 14.9551 28.9187 14.7461 29.113 14.593C29.3074 14.4399 29.5454 14.3501 29.7939 14.3362C29.8623 14.3274 29.9316 14.3274 30 14.3362V15.0039C29.9171 14.9944 29.8334 14.9944 29.7505 15.0039C29.5043 15.0133 29.27 15.1106 29.0914 15.2777C28.9127 15.4448 28.8019 15.6702 28.7797 15.9118C28.7594 16.0211 28.7486 16.1319 28.7472 16.243V18.3206H28.0313V15.6501L28.0584 15.6448Z" fill="#4E4E4E"/>
<path d="M27.7396 3.70114C27.7619 4.05996 27.6752 4.41718 27.4906 4.7273C27.306 5.03742 27.0318 5.2864 26.703 5.44254C26.3742 5.59866 26.0056 5.65487 25.6443 5.604C25.2829 5.55312 24.9451 5.39747 24.6739 5.15686C24.4027 4.91626 24.2103 4.60159 24.1214 4.25295C24.0324 3.90431 24.0508 3.53748 24.1743 3.19918C24.2978 2.86089 24.5207 2.56645 24.8147 2.35337C25.1087 2.14029 25.4604 2.01822 25.8251 2.0027C26.0642 1.98975 26.3036 2.02347 26.5294 2.10192C26.7552 2.18038 26.9631 2.30203 27.141 2.45987C27.3189 2.61771 27.4634 2.80864 27.5661 3.02166C27.6689 3.23468 27.7278 3.46561 27.7396 3.70114Z" fill="#767677"/>
<path d="M17.0152 24.6197C12.1342 24.6197 7.84417 22.8946 5.62598 20.3469C6.48664 22.6388 8.03962 24.6161 10.0759 26.0125C12.1121 27.409 14.5339 28.1576 17.0152 28.1576C19.4966 28.1576 21.9184 27.409 23.9546 26.0125C25.9909 24.6161 27.5438 22.6388 28.4045 20.3469C26.1918 22.8946 21.9181 24.6197 17.0152 24.6197Z" fill="#F37726"/>
<path d="M17.0152 8.0531C21.8964 8.0531 26.1864 9.77824 28.4045 12.3259C27.5438 10.034 25.9909 8.05675 23.9546 6.6603C21.9184 5.26386 19.4966 4.51526 17.0152 4.51526C14.5339 4.51526 12.1121 5.26386 10.0759 6.6603C8.03962 8.05675 6.48664 10.034 5.62598 12.3259C7.84417 9.7729 12.1125 8.0531 17.0152 8.0531Z" fill="#F37726"/>
<path d="M10.2951 29.5774C10.3237 30.0293 10.2151 30.4794 9.98304 30.8704C9.75097 31.2613 9.40598 31.5753 8.99203 31.7725C8.57808 31.9696 8.1139 32.041 7.65864 31.9774C7.20337 31.9138 6.77763 31.7182 6.43566 31.4155C6.09368 31.1128 5.85096 30.7166 5.73841 30.2776C5.62586 29.8385 5.64858 29.3764 5.80368 28.9501C5.95877 28.5238 6.23922 28.1527 6.60929 27.8839C6.97936 27.6151 7.4223 27.4609 7.88167 27.441C8.1826 27.4251 8.48375 27.4678 8.76792 27.5666C9.05209 27.6654 9.31371 27.8184 9.53784 28.0168C9.76196 28.2152 9.9442 28.4551 10.0741 28.7229C10.2041 28.9907 10.2792 29.281 10.2951 29.5774Z" fill="#9E9E9E"/>
<path d="M6.18254 7.47231C5.91953 7.47946 5.66024 7.40987 5.43728 7.27229C5.21432 7.13471 5.03765 6.93527 4.92948 6.69907C4.82132 6.46287 4.78648 6.20044 4.82936 5.9448C4.87224 5.68915 4.99092 5.45169 5.17047 5.2623C5.35002 5.0729 5.58243 4.94001 5.83848 4.88034C6.09451 4.82067 6.36275 4.8369 6.60946 4.92696C6.85616 5.01703 7.07032 5.17692 7.22499 5.38653C7.37967 5.59615 7.46795 5.84612 7.47875 6.10501C7.48902 6.45508 7.35867 6.79501 7.11599 7.051C6.87331 7.307 6.53788 7.45839 6.18254 7.47231Z" fill="#616262"/>
</svg>
