<svg width="20" height="18" viewBox="0 0 20 18" fill="none" xmlns="http://www.w3.org/2000/svg">
<path d="M17.0083 9.7543C15.7314 10.7119 14.1727 11.3768 12.4762 11.7048C12.3049 12.9182 11.26 13.8549 10 13.8549C8.73996 13.8549 7.69512 12.9182 7.52379 11.7048C5.8273 11.3768 4.26855 10.7119 2.99168 9.7543C1.06246 8.30738 0 6.36785 0 4.29297V14.9375C0 16.5287 1.29457 17.8232 2.88574 17.8232H17.1143C18.7054 17.8232 20 16.5287 20 14.9375V4.29297C20 6.36785 18.9375 8.30738 17.0083 9.7543Z" fill="#FB8F53"/>
<path d="M7.49863 10.5025V9.43813C7.49863 9.11453 7.76098 8.85219 8.08457 8.85219H11.9154C12.239 8.85219 12.5014 9.11453 12.5014 9.43813V10.5025C16.1548 9.70945 18.8281 7.22609 18.8281 4.29297V3.70703H14.1162V2.54266C14.1162 1.23809 13.0548 0.176758 11.7503 0.176758H8.24973C6.9452 0.176758 5.88383 1.23809 5.88383 2.54266V3.70703H1.17188V4.29297C1.17188 7.22609 3.84523 9.70945 7.49863 10.5025ZM7.05566 2.54266C7.05566 1.88426 7.59133 1.34863 8.24969 1.34863H11.7503C12.4086 1.34863 12.9443 1.88426 12.9443 2.54266V3.70703H7.05562V2.54266H7.05566Z" fill="#FB8F53"/>
<path d="M11.3299 10.024H8.6709V11.3534C8.6709 12.0865 9.26734 12.6829 10.0004 12.6829C10.7334 12.6829 11.3299 12.0865 11.3299 11.3534V10.024Z" fill="#FB8F53"/>
</svg>
