<svg width="34" height="34" viewBox="0 0 34 34" fill="none" xmlns="http://www.w3.org/2000/svg">
<path d="M15.8076 18.1479L19.0752 15.8052L22.2961 18.1479L19.0752 20.4534L15.8076 18.203V18.1479Z" fill="#F6BD3A"/>
<path d="M6 11.2038L19.0733 2L28.801 8.85425L25.5673 15.805L19.0733 11.2038L9.26989 18.1013L6 11.2038Z" fill="#F6BD3A"/>
<path d="M15.8064 27.3518V22.7637L19.0294 20.4533L22.2949 18.1479V22.7637L19.074 25.0568V29.6478L15.8064 32V27.3518ZM15.8064 18.1479L12.5401 15.854L9.27051 18.1011V13.5037L19.074 6.60095V15.8047L15.8064 18.1479ZM25.5233 13.5039V11.2037L28.8016 8.85419L28.8344 13.4556L25.5679 15.8049L25.5233 13.5039Z" fill="#EB8C23"/>
<path d="M12.5395 29.5628V15.8539L15.7612 13.6076L15.8058 18.1478L19.0733 20.4116V25.0567L15.8058 22.9009V31.9999L12.5395 29.5628ZM7.61141 16.9044L6 15.7086V11.2038L9.26989 13.504V18.1014L7.61141 16.9044ZM19.0733 11.2036V6.60107L25.5227 11.2036L25.5673 15.8048L19.0733 11.2036Z" fill="#E35A2B"/>
</svg>
