<svg width="34" height="34" viewBox="0 0 34 34" fill="none" xmlns="http://www.w3.org/2000/svg">
<path d="M17.0066 30C16.8401 30 16.6846 29.95 16.5401 29.8624L15.0628 28.874C14.8406 28.7363 14.9517 28.6863 15.0184 28.6613C15.3183 28.5487 15.3738 28.5236 15.6848 28.3236C15.7182 28.2984 15.7627 28.311 15.7959 28.336L16.929 29.0992C16.9734 29.1242 17.0289 29.1242 17.0622 29.0992L21.4943 26.209C21.5387 26.184 21.561 26.1339 21.561 26.0714V20.3035C21.561 20.2408 21.5387 20.1909 21.4943 20.1658L17.0622 17.2881C17.0178 17.263 16.9622 17.263 16.929 17.2881L12.4969 20.1658C12.4525 20.1908 12.4302 20.2534 12.4302 20.3034V26.0713C12.4302 26.1214 12.4525 26.1839 12.4969 26.209L13.7077 26.9972C14.363 27.3725 14.774 26.9346 14.774 26.4967V20.8039C14.774 20.7288 14.8296 20.6537 14.9073 20.6537H15.4738C15.5405 20.6537 15.6071 20.7163 15.6071 20.8039V26.4967C15.6071 27.4851 15.1294 28.0607 14.2963 28.0607C14.0409 28.0607 13.841 28.0607 13.2744 27.7479L12.1081 26.9972C11.8193 26.8096 11.6416 26.4592 11.6416 26.0838V20.3159C11.6416 19.9406 11.8193 19.5902 12.1081 19.4026L16.5401 16.5124C16.8179 16.3372 17.1956 16.3372 17.4732 16.5124L21.9052 19.4026C22.194 19.5902 22.3718 19.9406 22.3718 20.3159V26.0838C22.3718 26.4592 22.194 26.8096 21.9052 26.9972L17.4732 29.8874C17.3288 29.9626 17.1622 30 17.0067 30H17.0066ZM18.3729 26.0338C16.4291 26.0338 16.0292 25.0329 16.0292 24.1821C16.0292 24.107 16.0847 24.032 16.1625 24.032H16.7401C16.8067 24.032 16.8623 24.082 16.8623 24.1571C16.9512 24.8202 17.2066 25.1455 18.3841 25.1455C19.3171 25.1455 19.7171 24.9077 19.7171 24.3447C19.7171 24.0194 19.6059 23.7818 18.1508 23.6191C16.94 23.4814 16.1847 23.1812 16.1847 22.0926C16.1847 21.0791 16.9401 20.4785 18.2064 20.4785C19.6281 20.4785 20.328 21.0291 20.4169 22.2301C20.4169 22.2678 20.4057 22.3053 20.3835 22.3428C20.3612 22.3678 20.328 22.3928 20.2946 22.3928H19.717C19.6615 22.3928 19.6059 22.3428 19.5948 22.2803C19.4615 21.5922 19.1172 21.3669 18.2064 21.3669C17.1844 21.3669 17.0622 21.7673 17.0622 22.0675C17.0622 22.4304 17.2066 22.543 18.584 22.7432C19.9503 22.9434 20.5946 23.2312 20.5946 24.3071C20.5834 25.4082 19.7837 26.0338 18.3729 26.0338Z" fill="#539E43"/>
<path d="M8.44214 11.0189C8.44214 10.8795 8.37431 10.7477 8.26582 10.678L5.3906 8.78774C5.34308 8.75671 5.28887 8.74122 5.23465 8.73345H5.20749C5.15327 8.73345 5.099 8.75671 5.05153 8.78774L2.17631 10.678C2.06777 10.7477 2 10.8794 2 11.0189L2.00681 16.101C2.00681 16.1707 2.04072 16.2404 2.09493 16.2714C2.14921 16.3102 2.21697 16.3102 2.2645 16.2714L3.97335 15.1558C4.08184 15.0861 4.14967 14.9544 4.14967 14.815V12.4366C4.14967 12.2972 4.21744 12.1655 4.32598 12.0958L5.05153 11.6154C5.10581 11.5767 5.16683 11.5611 5.22785 11.5611C5.28887 11.5611 5.34989 11.5767 5.39741 11.6154L6.12296 12.0958C6.23151 12.1655 6.29928 12.2971 6.29928 12.4366V14.815C6.29928 14.9544 6.3671 15.0861 6.47559 15.1558L8.18444 16.2714C8.23872 16.3102 8.30649 16.3102 8.36076 16.2714C8.41503 16.2404 8.44894 16.1707 8.44894 16.101L8.44214 11.0189ZM22.2622 4.02328C22.208 3.99224 22.1402 3.99224 22.0926 4.02328C22.0384 4.06202 22.0045 4.12396 22.0045 4.19367V9.22934C22.0045 9.27579 21.9842 9.32224 21.9435 9.35328C21.9028 9.37647 21.8621 9.37647 21.8214 9.35328L21.1026 8.88071C21.0499 8.84643 20.9903 8.82841 20.9297 8.82841C20.8691 8.82841 20.8095 8.84643 20.7568 8.88071L17.8815 10.7788C17.773 10.8485 17.7052 10.9802 17.7052 11.1196V14.9079C17.7052 15.0473 17.773 15.1791 17.8815 15.2488L20.7568 17.1469C20.8095 17.1811 20.8691 17.1992 20.9297 17.1992C20.9903 17.1992 21.0499 17.1811 21.1026 17.1469L23.9779 15.2488C24.0863 15.1791 24.1542 15.0474 24.1542 14.9079V5.46423C24.1542 5.31703 24.0863 5.18539 23.9779 5.11561L22.2622 4.02328H22.2622ZM21.9978 13.6607C21.9978 13.6994 21.9842 13.7304 21.957 13.7459L20.9738 14.3966C20.9601 14.4042 20.945 14.4082 20.9297 14.4082C20.9144 14.4082 20.8993 14.4042 20.8856 14.3966L19.9024 13.7459C19.8752 13.7304 19.8616 13.6916 19.8616 13.6607V12.3591C19.8616 12.3204 19.8752 12.2894 19.9024 12.2739L20.8856 11.6231C20.8993 11.6155 20.9144 11.6115 20.9297 11.6115C20.945 11.6115 20.9601 11.6155 20.9738 11.6231L21.957 12.2739C21.9842 12.2894 21.9978 12.3282 21.9978 12.3591V13.6607ZM31.8304 12.3282C31.939 12.2585 32 12.1267 32 11.9872V11.0654C32 10.926 31.9322 10.7942 31.8304 10.7245L28.9756 8.83426C28.9229 8.79999 28.8633 8.78198 28.8027 8.78198C28.742 8.78198 28.6824 8.79999 28.6298 8.83426L25.7545 10.7322C25.646 10.8019 25.5782 10.9337 25.5782 11.0732V14.8614C25.5782 15.0009 25.646 15.1326 25.7545 15.2023L28.6094 17.0616C28.7179 17.1313 28.8467 17.1313 28.9485 17.0616L30.6776 15.9616C30.7319 15.9306 30.7658 15.8609 30.7658 15.7912C30.7658 15.7215 30.7319 15.6517 30.6776 15.6207L27.7889 13.7227C27.7346 13.684 27.7007 13.622 27.7007 13.5523V12.367C27.7007 12.2973 27.7346 12.2276 27.7889 12.1965L28.6908 11.6077C28.7172 11.5887 28.7477 11.5787 28.7789 11.5787C28.8101 11.5787 28.8407 11.5887 28.8671 11.6077L29.769 12.1965C29.8232 12.2353 29.8571 12.2972 29.8571 12.367V13.2966C29.8571 13.3663 29.8911 13.436 29.9453 13.467C29.9995 13.5058 30.0673 13.5058 30.1216 13.467L31.8304 12.3282Z" fill="#333333"/>
<path d="M28.7585 12.15C28.7686 12.1425 28.7803 12.1384 28.7924 12.1384C28.8044 12.1384 28.8162 12.1425 28.8263 12.15L29.3756 12.5141C29.3959 12.5296 29.4095 12.5528 29.4095 12.5839V13.3121C29.4095 13.343 29.3959 13.3663 29.3756 13.3818L28.8263 13.7459C28.8162 13.7535 28.8044 13.7575 28.7924 13.7575C28.7803 13.7575 28.7686 13.7535 28.7585 13.7459L28.2092 13.3818C28.1888 13.3663 28.1753 13.343 28.1753 13.3121V12.5839C28.1753 12.5528 28.1888 12.5296 28.2092 12.5141L28.7585 12.15Z" fill="#539E43"/>
<mask id="mask0" mask-type="alpha" maskUnits="userSpaceOnUse" x="9" y="8" width="8" height="10">
<path d="M13.2501 8.84977C13.1974 8.8155 13.1378 8.79749 13.0772 8.79749C13.0166 8.79749 12.957 8.8155 12.9043 8.84977L10.0494 10.7322C9.9409 10.8019 9.87988 10.9336 9.87988 11.073V14.8459C9.87988 14.9854 9.94771 15.1171 10.0494 15.1868L12.9043 17.0693C12.957 17.1036 13.0166 17.1216 13.0772 17.1216C13.1378 17.1216 13.1974 17.1036 13.2501 17.0693L16.105 15.1868C16.2135 15.1171 16.2746 14.9854 16.2746 14.8459V11.0731C16.2746 10.9337 16.2067 10.802 16.105 10.7323L13.2501 8.84977Z" fill="white"/>
</mask>
<g mask="url(#mask0)">
<path d="M13.2501 8.84977C13.1974 8.8155 13.1378 8.79749 13.0772 8.79749C13.0166 8.79749 12.957 8.8155 12.9043 8.84977L10.0494 10.7322C9.9409 10.8019 9.87988 10.9336 9.87988 11.073V14.8459C9.87988 14.9854 9.94771 15.1171 10.0494 15.1868L12.9043 17.0693C12.957 17.1036 13.0166 17.1216 13.0772 17.1216C13.1378 17.1216 13.1974 17.1036 13.2501 17.0693L16.105 15.1868C16.2135 15.1171 16.2746 14.9854 16.2746 14.8459V11.0731C16.2746 10.9337 16.2067 10.802 16.105 10.7323L13.2501 8.84977Z" fill="url(#paint0_linear)"/>
<path d="M16.1113 10.7323L13.2429 8.84978C13.2147 8.83352 13.1852 8.82054 13.1547 8.81104L9.94043 15.1017C9.96706 15.1389 9.99921 15.1703 10.0354 15.1947L12.9038 17.0772C12.9852 17.1315 13.0801 17.147 13.1683 17.1159L16.186 10.8098C16.1656 10.7789 16.1384 10.7555 16.1113 10.7323V10.7323Z" fill="url(#paint1_linear)"/>
<path fill-rule="evenodd" clip-rule="evenodd" d="M16.1185 15.1869C16.1999 15.1327 16.2609 15.0397 16.2881 14.939L13.1415 8.80332C13.0601 8.78783 12.9719 8.79554 12.8974 8.84977L10.0493 10.7246L13.1211 17.1237C13.1658 17.1153 13.2092 17.0997 13.25 17.0772L16.1185 15.187L16.1185 15.1869Z" fill="url(#paint2_linear)"/>
<path fill-rule="evenodd" clip-rule="evenodd" d="M16.1184 15.1869L13.2568 17.0695C13.2164 17.093 13.1728 17.1087 13.1279 17.1159L13.1822 17.2322L16.3558 15.1328V15.0862L16.2744 14.9313C16.2608 15.0397 16.1998 15.1327 16.1184 15.1869Z" fill="url(#paint3_linear)"/>
<path fill-rule="evenodd" clip-rule="evenodd" d="M16.1184 15.1869L13.2568 17.0695C13.2164 17.093 13.1728 17.1087 13.1279 17.1159L13.1822 17.2322L16.3558 15.1328V15.0862L16.2744 14.9313C16.2608 15.0397 16.1998 15.1327 16.1184 15.1869Z" fill="url(#paint4_linear)"/>
</g>
<defs>
<linearGradient id="paint0_linear" x1="14.2403" y1="10.2531" x2="10.4864" y2="15.4162" gradientUnits="userSpaceOnUse">
<stop stop-color="#41873F"/>
<stop offset="0.3288" stop-color="#418B3D"/>
<stop offset="0.6352" stop-color="#419637"/>
<stop offset="0.9319" stop-color="#3FA92D"/>
<stop offset="1" stop-color="#3FAE2A"/>
</linearGradient>
<linearGradient id="paint1_linear" x1="12.6433" y1="13.4015" x2="20.9214" y2="9.46475" gradientUnits="userSpaceOnUse">
<stop offset="0.1376" stop-color="#41873F"/>
<stop offset="0.4032" stop-color="#54A044"/>
<stop offset="0.7136" stop-color="#66B848"/>
<stop offset="0.9081" stop-color="#6CC04A"/>
</linearGradient>
<linearGradient id="paint2_linear" x1="9.7755" y1="12.9597" x2="16.3816" y2="12.9597" gradientUnits="userSpaceOnUse">
<stop offset="0.09192" stop-color="#6CC04A"/>
<stop offset="0.2864" stop-color="#66B848"/>
<stop offset="0.5968" stop-color="#54A044"/>
<stop offset="0.8624" stop-color="#41873F"/>
</linearGradient>
<linearGradient id="paint3_linear" x1="9.77546" y1="16.088" x2="16.3815" y2="16.088" gradientUnits="userSpaceOnUse">
<stop offset="0.09192" stop-color="#6CC04A"/>
<stop offset="0.2864" stop-color="#66B848"/>
<stop offset="0.5968" stop-color="#54A044"/>
<stop offset="0.8624" stop-color="#41873F"/>
</linearGradient>
<linearGradient id="paint4_linear" x1="17.3439" y1="10.0748" x2="15.1828" y2="19.9871" gradientUnits="userSpaceOnUse">
<stop stop-color="#41873F"/>
<stop offset="0.3288" stop-color="#418B3D"/>
<stop offset="0.6352" stop-color="#419637"/>
<stop offset="0.9319" stop-color="#3FA92D"/>
<stop offset="1" stop-color="#3FAE2A"/>
</linearGradient>
</defs>
</svg>
