<svg width="118" height="118" viewBox="0 0 118 118" fill="none" xmlns="http://www.w3.org/2000/svg">
<g clip-path="url(#clip0)">
<path d="M116.532 60.425C116.532 92.2225 90.7552 118 58.9577 118C27.1602 118 1.38281 92.2225 1.38281 60.425C1.38281 28.6276 27.1602 2.85107 58.9577 2.85107C90.7552 2.85107 116.532 28.6276 116.532 60.425Z" fill="#FDD33A"/>
<path d="M59.585 44.4263H30.5604C17.3147 44.4263 6.57721 55.1638 6.57721 68.4095C6.57721 77.991 12.1967 86.26 20.3189 90.1015C23.5806 91.6445 25.6728 94.9161 25.6728 98.5244V103.669C25.6728 105.626 28.2008 106.405 29.3018 104.789L34.9834 96.4564C36.7173 93.9141 39.5955 92.3926 42.6726 92.3926H59.585C72.8307 92.3926 83.5682 81.6551 83.5682 68.4095C83.5673 55.1638 72.8298 44.4263 59.585 44.4263Z" fill="#F8FAFD"/>
<path d="M29.4836 90.1015C21.3614 86.26 15.7419 77.991 15.7419 68.4095C15.7419 55.1638 26.4794 44.4263 39.7251 44.4263H30.5604C17.3147 44.4263 6.57721 55.1638 6.57721 68.4095C6.57721 77.991 12.1958 86.26 20.318 90.1015C23.5806 91.6445 25.6719 94.9161 25.6719 98.5244V103.669C25.6719 105.626 28.1999 106.405 29.3018 104.789L34.6863 96.8913C34.1605 93.9528 32.2439 91.4068 29.4836 90.1015Z" fill="#DDDDDD"/>
<path d="M33.2657 68.868C33.2657 71.3131 31.2842 73.2955 28.8391 73.2955C26.394 73.2955 24.4116 71.3131 24.4116 68.868C24.4116 66.4228 26.394 64.4404 28.8391 64.4404C31.2842 64.4404 33.2657 66.4228 33.2657 68.868Z" fill="#7956BA"/>
<path d="M49.5002 68.868C49.5002 71.3131 47.5179 73.2955 45.0727 73.2955C42.6276 73.2955 40.6452 71.3131 40.6452 68.868C40.6452 66.4228 42.6276 64.4404 45.0727 64.4404C47.5179 64.4404 49.5002 66.4228 49.5002 68.868Z" fill="#7956BA"/>
<path d="M65.7339 68.868C65.7339 71.3131 63.7515 73.2955 61.3064 73.2955C58.8612 73.2955 56.8788 71.3131 56.8788 68.868C56.8788 66.4228 58.8612 64.4404 61.3064 64.4404C63.7515 64.4404 65.7339 66.4228 65.7339 68.868Z" fill="#7956BA"/>
<path d="M58.1446 0H87.1684C100.414 0 111.152 10.7375 111.152 23.9832C111.152 33.5647 105.533 41.8328 97.4107 45.6751C94.1481 47.2182 92.0568 50.4898 92.0568 54.098V59.2431C92.0568 61.1985 89.5289 61.979 88.4269 60.363L82.7453 52.0292C81.0123 49.4869 78.1342 47.9663 75.0561 47.9663H58.1446C44.8989 47.9663 34.1614 37.2288 34.1614 23.9832C34.1614 10.7375 44.8989 0 58.1446 0Z" fill="#F84E82"/>
<path d="M84.9267 44.9117H68.0142C54.7686 44.9117 44.0311 34.1733 44.0311 20.9286C44.0311 12.1969 48.6981 4.55537 55.6734 0.361023C43.589 1.59799 34.1614 11.807 34.1614 24.2181C34.1614 37.4638 44.8989 48.2013 58.1446 48.2013H75.057C78.1342 48.2013 81.0123 49.7227 82.7453 52.2651L88.4269 60.598C89.5288 62.214 92.0568 61.4343 92.0568 59.4781V54.333C92.0568 52.7323 92.47 51.1983 93.2136 49.8515L92.615 48.9755C90.882 46.4323 88.0038 44.9117 84.9267 44.9117Z" fill="#DD3A71"/>
<path d="M93.3181 24.4413C93.3181 26.8864 91.3357 28.8688 88.8906 28.8688C86.4455 28.8688 84.4631 26.8864 84.4631 24.4413C84.4631 21.9962 86.4455 20.0138 88.8906 20.0138C91.3357 20.0138 93.3181 21.9962 93.3181 24.4413Z" fill="#F8FAFD"/>
<path d="M77.0836 24.4413C77.0836 26.8864 75.1021 28.8688 72.657 28.8688C70.2118 28.8688 68.2294 26.8864 68.2294 24.4413C68.2294 21.9962 70.2118 20.0138 72.657 20.0138C75.1021 20.0138 77.0836 21.9962 77.0836 24.4413Z" fill="#F8FAFD"/>
<path d="M60.8499 24.4413C60.8499 26.8864 58.8675 28.8688 56.4224 28.8688C53.9773 28.8688 51.9949 26.8864 51.9949 24.4413C51.9949 21.9962 53.9773 20.0138 56.4224 20.0138C58.8675 20.0138 60.8499 21.9962 60.8499 24.4413Z" fill="#F8FAFD"/>
</g>
<defs>
<clipPath id="clip0">
<rect width="118" height="118" fill="white"/>
</clipPath>
</defs>
</svg>
